<?xml version="1.0" standalone="no"?>
<!DOCTYPE svg PUBLIC "-//W3C//DTD SVG 20010904//EN"
 "http://www.w3.org/TR/2001/REC-SVG-20010904/DTD/svg10.dtd">
<svg version="1.0" xmlns="http://www.w3.org/2000/svg"
 width="1024.000000pt" height="1024.000000pt" viewBox="0 0 1024.000000 1024.000000"
 preserveAspectRatio="xMidYMid meet">
<metadata>
Created by potrace 1.11, written by Peter Selinger 2001-2013
</metadata>
<g transform="translate(0.000000,1024.000000) scale(0.100000,-0.100000)"
fill="#000000" stroke="none">
<path d="M6030 5015 l0 -2915 350 0 350 0 0 1463 0 1462 40 69 c169 289 406
481 690 558 76 21 106 23 290 22 179 0 215 -3 284 -22 228 -63 374 -193 453
-403 70 -186 66 -97 70 -1702 l4 -1447 350 0 350 0 -4 1483 c-3 1623 0 1541
-63 1791 -126 505 -438 798 -939 882 -132 22 -352 29 -480 15 -380 -41 -655
-172 -922 -437 l-123 -122 0 1109 0 1109 -350 0 -350 0 0 -2915z"/>
<path d="M2910 7694 c-533 -49 -972 -245 -1315 -589 -379 -378 -611 -913 -686
-1580 -17 -149 -23 -949 -10 -1167 40 -634 206 -1137 509 -1541 300 -400 701
-656 1176 -752 343 -69 793 -55 1142 35 666 172 1127 622 1329 1298 29 99 71
302 81 390 l7 62 -366 0 -365 0 -17 -97 c-25 -140 -77 -322 -124 -438 -145
-354 -373 -552 -743 -645 -163 -41 -306 -54 -526 -47 -166 4 -200 8 -304 35
-444 115 -765 450 -942 986 -101 306 -136 612 -136 1201 0 754 58 1103 245
1480 244 493 641 751 1185 772 581 22 979 -190 1190 -632 67 -143 128 -350
160 -542 l12 -73 364 0 364 0 0 29 c0 16 -11 94 -24 173 -73 429 -242 789
-499 1064 -289 308 -655 490 -1132 560 -97 14 -483 26 -575 18z"/>
</g>
</svg>
